IMDB 
http://www.imdb.com/title/tt0120623/

Journey inside the miniature world of bugs for larger-than-life fun and adventure under every leaf! Crawling with imaginative characters, hilarious laughs and colourful, lifelike computer animation, Disney and Pixor's "A Bug's Life" is a masterpiece, terrific entertainment for all ages. (The Daily Mail).

On behalf of "oppressed bugs everywhere", an inventive ant named Flik hires "warrior bugs" to defend his colony from a horde of greedy grasshoppers, led by Hopper. But when Flik's cavalry turns out to be a motley group of flea circus performers, the stage is set for comic confusion...as well as unlikely heroes!

Featuring a star-studded voice cast. A Bug's Life presents an amazing new perspective on teamwork and determination! Plus, this DVD edition has been created directly from Pixar's digital source

Format : MPEG-4
Format profile : Base Media / Version 2
Codec ID : mp42
File size : 799 MiB
Duration : 1h 31mn
Overall bit rate : 1 228 Kbps
Encoded date : UTC 2009-08-07 06:54:14
Tagged date : UTC 2009-08-07 10:52:08
Writing application : HandBrake 0.9.3 2008112300

Video
ID : 1
Format : AVC
Format/Info : Advanced Video Codec
Format profile : Main@L4.0
Format settings, CABAC : Yes
Format settings, ReFrames : 3 frames
Codec ID : avc1
Codec ID/Info : Advanced Video Coding
Duration : 1h 31mn
Bit rate mode : Variable
Bit rate : 1 064 Kbps
Width : 720 pixels
Height : 576 pixels
Display aspect ratio : 4/3
Frame rate mode : Variable
Frame rate : 25.000 fps
Minimum frame rate : 12.500 fps
Maximum frame rate : 25.000 fps
Standard : PAL
Resolution : 24 bits
Colorimetry : 4:2:0
Scan type : Progressive
Bits/(Pixel*Frame) : 0.103
Stream size : 693 MiB (87%)
Writing library : x264 core 65

Audio
ID : 2
Format : AAC
Format/Info : Advanced Audio Codec
Format version : Version 4
Format profile : LC
Format settings, SBR : No
Codec ID : 40
Duration : 1h 31mn
Bit rate mode : Variable
Bit rate : 160 Kbps
Maximum bit rate : 203 Kbps
Channel(s) : 2 channels
Channel positions : L R
Sampling rate : 48.0 KHz
Resolution : 16 bits
Stream size : 104 MiB (13%)
Language : English
Encoded date : UTC 2009-08-07 06:54:15
Tagged date : UTC 2009-08-07 10:52:07
